<svg xmlns="http://www.w3.org/2000/svg" width="33" height="33" fill="none"><g fill="#fff"><path d="M16.515 8.573a8.184 8.184 0 0 0-2.428.37l-.75.275-.716.345-.675.41-.63.472-.582.529-.529.581-.472.63-.411.674-.345.714a8.09 8.09 0 0 0-.604 4.009 8.099 8.099 0 0 0 .604 2.342l.345.714.411.674.472.63.53.582.58.528.631.472.675.41.715.345.751.276.783.202a8.12 8.12 0 0 0 2.478.125 8.12 8.12 0 0 0 .81-.125l.784-.202.75-.276.716-.345.675-.41.63-.472.582-.528.53-.582.471-.63.411-.674.346-.714.276-.75c.08-.256.148-.517.202-.782l.125-.81a8.169 8.169 0 0 0-.327-3.259l-.276-.75-.346-.714-.41-.674-.473-.63-.529-.581-.582-.529-.63-.471-.675-.411-.715-.345-.751-.276-.783-.202-.81-.125a8.198 8.198 0 0 0-.834-.042Zm0 2.822c.186 0 .37.01.55.027l.533.081.515.131.493.18.469.224.44.267.413.307.38.345.345.38.307.411.268.442.224.468a5.39 5.39 0 0 1 .392 1.541l.027.55a5.492 5.492 0 0 1-.24 1.599l-.179.492-.224.469-.268.441-.307.412-.345.38-.38.344-.412.307-.441.267-.469.225-.493.179-.515.131-.533.08a5.534 5.534 0 0 1-1.101 0l-.533-.08a5.363 5.363 0 0 1-.515-.131l-.494-.18-.468-.224-.441-.267-.412-.307-.38-.345-.345-.38-.308-.41-.267-.442-.225-.469-.179-.492-.131-.515-.08-.534a5.523 5.523 0 0 1 .08-1.634c.035-.173.079-.345.131-.514l.18-.493.224-.468.267-.442.308-.412.345-.379.38-.345.412-.307.44-.267.47-.224c.161-.068.326-.128.493-.18l.515-.13a5.433 5.433 0 0 1 1.084-.109ZM25.029 6.247a1.937 1.937 0 0 0-1.527.743 1.981 1.981 0 0 0-.412 1.415 1.98 1.98 0 0 0 .581 1.211 1.949 1.949 0 0 0 1.934.467 1.938 1.938 0 0 0 1.064-.814 1.974 1.974 0 0 0-.282-2.467 1.968 1.968 0 0 0-.837-.483 1.938 1.938 0 0 0-.521-.072Z"/><path d="M14.962.754c-.89-.001-1.684.003-2.398.013l-1.913.051c-.566.025-1.067.057-1.517.098-.224.02-.436.044-.637.07-.191.024-.382.052-.572.084a9.163 9.163 0 0 0-1.432.352c-.143.048-.283.099-.42.153-.276.11-.544.232-.82.37-.214.105-.41.212-.597.325a6.463 6.463 0 0 0-1.053.791c-.172.157-.348.33-.531.523-.23.241-.43.466-.607.687a7.156 7.156 0 0 0-.472.66 6.274 6.274 0 0 0-.38.706c-.117.25-.226.52-.335.821a9.417 9.417 0 0 0-.39 1.418 12.89 12.89 0 0 0-.136.86A20.91 20.91 0 0 0 .65 9.772c-.029.38-.052.798-.072 1.263l-.046 1.547-.025 1.886-.007 2.28.021 3.315.066 2.512.05.981.063.813c.02.22.046.438.076.656.028.193.058.363.09.51.065.297.141.593.23.885.084.279.181.555.29.826.107.265.224.521.35.768a8.256 8.256 0 0 0 .887 1.365 7.766 7.766 0 0 0 1.136 1.144c.213.174.434.338.663.49.213.143.423.273.635.392a7.862 7.862 0 0 0 2.064.807c.259.063.533.119.823.167.29.048.6.09.932.125.33.035.684.065 1.064.09.38.024.786.044 1.222.06.674.024 1.694.038 2.87.044l3.808-.008 3.606-.05 1.371-.04.893-.045a15.063 15.063 0 0 0 1.094-.13 11.354 11.354 0 0 0 1.004-.21 9.88 9.88 0 0 0 1.41-.482c.155-.066.309-.136.463-.21.237-.114.428-.21.596-.302a4.13 4.13 0 0 0 .454-.29c.143-.105.286-.225.45-.377.164-.15.35-.333.58-.563.202-.202.373-.378.52-.538.147-.16.27-.303.38-.442.103-.131.2-.268.288-.41.087-.139.167-.282.249-.442.122-.24.231-.462.33-.676.094-.207.18-.417.259-.63.077-.212.144-.428.2-.646a8.36 8.36 0 0 0 .15-.721c.044-.26.08-.543.112-.86.031-.315.058-.664.082-1.057l.062-1.317.054-1.638.038-1.824.015-1.908-.034-3.748-.046-1.678-.063-1.441-.078-1.124a7.811 7.811 0 0 0-.09-.726 12.255 12.255 0 0 0-.263-1.077 10.477 10.477 0 0 0-.348-.993 8.371 8.371 0 0 0-.437-.91 8.222 8.222 0 0 0-.523-.824 7.727 7.727 0 0 0-.948-1.08 7.617 7.617 0 0 0-1.143-.888 8.394 8.394 0 0 0-.87-.486c-.25-.122-.482-.23-.709-.326a7.262 7.262 0 0 0-1.424-.443c-.267-.054-.557-.1-.886-.138A20.53 20.53 0 0 0 23.52.904C23.101.878 22.63.858 22.09.84l-1.833-.04-2.321-.028-2.972-.018Zm1.544 2.82 4.285.024 1.617.031c.445.013.785.028.984.045.26.021.506.049.743.082.226.03.452.07.676.116.215.045.42.097.617.154.197.058.385.123.565.195a5.604 5.604 0 0 1 .997.519 5.404 5.404 0 0 1 .865.711c.144.144.277.29.4.44a4.831 4.831 0 0 1 .847 1.557c.069.203.13.418.184.648.056.245.104.49.142.738.041.263.076.542.106.842.03.3.054.62.074.961.017.274.03.636.043 1.064l.03 1.457.023 3.57-.026 3.566-.032 1.453-.043 1.057c-.03.495-.061.91-.1 1.273-.018.18-.039.348-.061.505a8.516 8.516 0 0 1-.076.444 6.432 6.432 0 0 1-.207.775 6.534 6.534 0 0 1-.138.368 9.07 9.07 0 0 1-.166.381 5.694 5.694 0 0 1-.347.638 4.98 4.98 0 0 1-.654.822 4.937 4.937 0 0 1-1.137.853 5.916 5.916 0 0 1-.687.327 8.43 8.43 0 0 1-1.185.37c-.297.068-.596.124-.897.167a9.768 9.768 0 0 1-.764.048l-1.453.04-4.12.053-4.313.007-1.693-.018-1.1-.034-.81-.057a18.927 18.927 0 0 1-.706-.072c-.22-.026-.424-.056-.616-.09a8.226 8.226 0 0 1-.543-.113 6.208 6.208 0 0 1-.486-.139 5.44 5.44 0 0 1-.866-.374 6.55 6.55 0 0 1-.996-.663 5.159 5.159 0 0 1-.5-.473 4.571 4.571 0 0 1-.608-.832 5.184 5.184 0 0 1-.317-.65 6.56 6.56 0 0 1-.134-.358 7.949 7.949 0 0 1-.222-.79c-.064-.28-.119-.576-.165-.893a16.389 16.389 0 0 1-.114-1.01c-.022-.263-.039-.672-.052-1.189l-.028-1.838.01-4.684.08-4.476.062-1.578.035-.52c.012-.14.025-.243.037-.305.043-.204.085-.393.13-.57.04-.168.086-.334.136-.5.048-.155.098-.3.152-.439a4.33 4.33 0 0 1 .61-1.097c.086-.113.178-.224.278-.336a8.04 8.04 0 0 1 .75-.738c.14-.118.285-.23.436-.333a4.85 4.85 0 0 1 .953-.505c.172-.068.353-.13.546-.185a7.66 7.66 0 0 1 .612-.145c.216-.042.446-.08.692-.111.245-.033.506-.06.786-.085.194-.017.53-.032.972-.044l1.608-.032 4.28-.026h-.002Z"/></g></svg>